<?xml version="1.0" standalone="no"?>
<!DOCTYPE svg PUBLIC "-//W3C//DTD SVG 20010904//EN"
 "http://www.w3.org/TR/2001/REC-SVG-20010904/DTD/svg10.dtd">
<svg version="1.0" xmlns="http://www.w3.org/2000/svg"
 width="1300.000000pt" height="1300.000000pt" viewBox="0 0 1300.000000 1300.000000"
 preserveAspectRatio="xMidYMid meet">

<g transform="translate(0.000000,1300.000000) scale(0.100000,-0.100000)"
fill="#000000" stroke="none">
<path d="M6300 10967 c0 -9 15 -17 38 -21 21 -3 46 -14 56 -25 16 -18 14 -31
-54 -267 -100 -353 -100 -354 -163 -354 -14 0 -27 -7 -31 -15 -5 -13 12 -15
114 -15 100 0 120 3 120 15 0 9 -9 15 -23 15 -28 0 -47 18 -47 44 0 21 117
441 129 464 4 8 54 -106 120 -272 108 -273 131 -316 145 -268 3 9 42 145 86
301 45 157 88 300 96 319 17 43 40 61 75 62 15 0 30 7 33 15 5 14 -10 15 -116
13 -82 -2 -123 -7 -125 -15 -3 -7 9 -13 28 -15 58 -6 57 -16 -12 -261 -35
-125 -66 -227 -69 -227 -3 0 -51 116 -107 258 l-101 257 -96 3 c-77 2 -96 0
-96 -11z"/>
<path d="M6466 9878 c-16 -134 -36 -304 -45 -378 l-16 -135 -45 -3 c-723 -42
-1366 -328 -1871 -831 -224 -223 -394 -461 -534 -746 -92 -187 -138 -305 -191
-487 -56 -195 -104 -496 -104 -650 0 -57 21 -49 -220 -77 -484 -56 -560 -66
-560 -71 0 -5 90 -17 340 -46 19 -2 89 -10 155 -18 66 -8 149 -17 185 -21 103
-10 97 -4 104 -108 85 -1159 886 -2163 2000 -2506 121 -37 95 -21 -39 23 -317
106 -586 249 -855 457 -122 94 -339 305 -447 437 -283 343 -495 788 -582 1227
-25 122 -51 331 -51 402 0 52 0 53 28 49 15 -2 55 -7 89 -11 71 -8 67 -1 77
-140 8 -111 45 -306 82 -444 88 -320 256 -646 474 -921 419 -527 1056 -879
1720 -950 58 -6 130 -14 160 -18 l55 -7 7 -65 c4 -36 10 -84 13 -107 l6 -42
-53 -4 -53 -3 52 -2 c57 -2 54 4 68 -127 3 -27 14 -120 24 -205 11 -85 27
-226 37 -313 10 -86 20 -157 24 -157 3 0 25 168 49 373 24 204 46 384 48 399
5 25 9 27 62 31 l56 3 -58 2 c-57 2 -57 2 -53 29 2 16 7 55 11 88 12 121 -1
109 138 124 857 89 1633 632 2025 1418 68 136 173 410 171 446 0 7 -22 -49
-48 -123 -84 -239 -153 -380 -279 -572 -229 -346 -555 -648 -907 -839 -317
-172 -681 -284 -994 -306 l-93 -6 5 29 c3 16 11 74 17 129 6 55 17 145 23 199
l12 100 139 23 c396 65 719 213 1028 472 387 324 661 841 713 1343 8 78 -9 70
195 93 74 8 166 19 203 23 57 7 69 6 77 -7 8 -14 9 -14 10 2 0 11 8 17 23 18
12 0 29 2 37 3 8 2 42 6 75 10 33 4 75 10 94 13 l34 6 -7 -109 c-31 -485 -208
-986 -494 -1399 -201 -291 -528 -602 -827 -786 -180 -111 -343 -190 -565 -271
-58 -21 -92 -36 -75 -33 69 15 291 105 432 176 893 451 1484 1333 1559 2324 4
50 10 92 15 95 4 3 179 25 388 50 210 24 381 47 381 50 0 4 -71 14 -157 24
-87 10 -225 26 -308 36 -82 11 -177 22 -210 25 -108 11 -105 9 -105 68 0 166
-53 475 -115 683 -344 1141 -1345 1939 -2537 2022 l-93 7 -7 55 c-4 30 -14
118 -23 195 -9 77 -18 154 -20 170 -2 17 -12 99 -21 183 -10 83 -21 152 -24
152 -3 0 -19 -109 -34 -242z m73 -143 c12 -110 24 -211 26 -225 2 -14 6 -50
10 -80 3 -30 8 -71 11 -90 2 -19 33 -285 69 -590 36 -305 67 -573 70 -596 20
-158 125 -1063 125 -1080 0 -18 -302 -499 -336 -534 -13 -13 -14 212 -14 1699
1 943 5 1710 9 1705 5 -5 18 -99 30 -209z m-143 -457 c-3 -18 -8 -63 -12 -99
-4 -37 -10 -72 -14 -78 -3 -6 -57 -16 -121 -21 -355 -31 -678 -124 -989 -286
-663 -345 -1151 -973 -1320 -1699 -27 -114 -60 -326 -60 -385 0 -81 -5 -87
-68 -94 -32 -4 -72 -10 -91 -13 l-34 -6 6 99 c33 502 219 1020 517 1438 207
290 510 573 811 759 358 221 795 369 1189 404 36 3 67 7 69 9 2 2 31 4 64 4
l59 0 -6 -32z m419 17 c866 -100 1627 -585 2087 -1331 207 -335 343 -728 392
-1136 14 -111 21 -228 14 -228 -2 0 -55 7 -118 15 -63 9 -158 20 -210 25 -171
18 -401 48 -406 53 -2 2 -11 48 -19 102 -50 328 -186 655 -386 925 -93 125
-288 320 -414 414 -142 106 -234 163 -367 225 -106 50 -331 131 -359 131 -8
-1 38 -18 101 -39 313 -105 552 -249 782 -470 187 -180 307 -341 415 -556 75
-149 118 -262 157 -419 32 -124 63 -302 54 -311 -2 -2 -26 -1 -53 3 -47 7 -50
9 -56 42 l-6 35 -2 -32 c-1 -39 -3 -40 -165 -18 -60 8 -141 17 -180 21 -39 3
-72 7 -73 8 -1 1 -9 36 -18 77 -49 235 -168 479 -325 668 -31 37 -48 66 -44
74 4 6 44 59 89 117 127 165 125 167 -30 39 -61 -50 -115 -93 -122 -96 -6 -2
-39 18 -73 46 -180 150 -402 264 -609 312 -47 11 -93 22 -102 25 -11 3 -18 20
-22 52 -32 263 -39 343 -33 349 11 12 212 -26 336 -64 302 -91 555 -236 777
-446 261 -246 440 -544 538 -892 19 -66 34 -113 34 -104 1 28 -57 221 -94 314
-154 383 -417 701 -768 929 -223 146 -516 254 -789 292 -40 5 -48 10 -48 28 0
11 -3 31 -6 44 -5 18 -2 22 17 23 24 2 24 2 2 6 -13 2 -23 5 -23 6 0 1 -13
112 -29 247 -16 134 -28 247 -26 250 5 8 147 -6 265 -25 933 -155 1717 -826
2011 -1722 33 -102 54 -139 26 -46 -232 764 -825 1392 -1582 1673 -196 73
-453 131 -645 147 -41 3 -78 10 -81 15 -4 6 -10 44 -13 86 -4 41 -10 88 -13
104 -5 27 -5 28 38 28 24 0 103 -7 174 -15z m-449 -272 c-3 -21 -10 -78 -16
-128 -6 -49 -17 -144 -25 -210 -8 -65 -15 -123 -15 -127 0 -4 -10 -9 -22 -9
l-23 -2 23 -4 c20 -4 22 -8 16 -41 -4 -20 -11 -40 -16 -43 -6 -4 -40 -9 -77
-13 -36 -4 -121 -20 -188 -36 -665 -159 -1195 -647 -1409 -1296 -40 -123 -84
-322 -84 -384 0 -23 -5 -29 -32 -34 -17 -3 -33 -4 -36 -2 -9 9 21 185 54 312
96 379 282 697 572 975 238 229 525 397 827 484 105 30 123 37 75 29 -70 -11
-278 -87 -395 -144 -221 -107 -407 -243 -590 -431 -321 -331 -496 -696 -570
-1191 -7 -44 -2 -42 -155 -58 -58 -7 -156 -18 -218 -26 -62 -8 -117 -14 -123
-14 -26 0 9 283 59 485 70 279 195 562 347 790 107 161 173 242 300 374 417
431 967 700 1565 766 176 19 163 21 156 -22z m-77 -635 c0 -18 -10 -109 -22
-202 l-22 -169 -102 -23 c-130 -29 -293 -94 -408 -163 -91 -54 -234 -161 -269
-200 -11 -11 -22 -21 -26 -21 -4 0 -63 43 -130 95 -68 52 -126 93 -128 90 -8
-8 109 -146 119 -140 8 5 1119 -1079 1119 -1092 0 -3 -6 -1 -12 4 -7 5 -113
74 -236 153 l-223 144 -321 393 c-176 217 -323 391 -326 389 -2 -3 13 -26 35
-52 l40 -47 -78 -100 c-75 -97 -175 -274 -218 -387 -25 -65 -55 -173 -71 -252
-10 -50 -15 -58 -33 -58 -12 0 -104 -10 -204 -22 -101 -12 -186 -18 -189 -15
-9 9 12 141 42 260 142 573 565 1070 1106 1302 167 71 421 140 531 144 24 1
27 -2 26 -31z m-53 -475 c-16 -121 -17 -123 -38 -123 -40 0 -233 -71 -328
-121 -53 -28 -135 -79 -183 -115 -48 -35 -90 -64 -93 -64 -9 0 -114 82 -113
89 1 10 118 104 193 155 127 87 298 163 461 206 108 29 108 29 101 -27z m725
-3 c135 -45 251 -101 364 -175 89 -59 177 -133 173 -145 -4 -10 -114 -100
-122 -100 -4 0 -31 20 -61 45 -122 99 -283 183 -442 231 -103 32 -91 16 -109
148 l-7 48 44 -7 c24 -4 96 -24 160 -45z m-747 -182 c-5 -28 -26 -203 -55
-455 -12 -106 -26 -193 -30 -193 -9 0 -439 328 -472 360 -18 16 -17 18 25 54
60 52 160 116 248 161 76 39 269 107 281 99 3 -2 5 -14 3 -26z m695 2 c111
-36 230 -94 336 -165 139 -92 151 -63 -120 -284 -129 -105 -242 -194 -250
-197 -9 -4 -15 0 -15 9 0 19 -68 603 -75 640 -6 36 8 35 124 -3z m722 -67
c-17 -21 -265 -274 -551 -563 -512 -516 -520 -523 -464 -435 87 139 195 305
229 353 18 26 186 170 420 362 215 175 392 319 393 319 2 1 -10 -16 -27 -36z
m2 -201 c114 -133 220 -322 275 -487 34 -104 58 -203 50 -211 -10 -9 -163 16
-167 27 -2 8 -5 8 -10 1 -5 -8 -110 1 -336 28 -182 22 -338 40 -348 40 -10 0
-17 6 -15 13 2 7 88 124 193 259 l189 247 33 -37 c97 -108 201 -292 252 -447
16 -49 30 -84 30 -76 1 23 -59 192 -91 256 -38 75 -123 206 -172 264 -20 24
-35 50 -32 58 8 20 87 123 95 122 3 0 28 -26 54 -57z m-2175 -17 l43 -54 -49
-63 c-127 -163 -221 -353 -256 -515 -8 -35 -14 -38 -98 -48 -70 -8 -69 -11
-33 125 45 165 134 350 237 490 44 59 98 120 108 120 3 0 24 -25 48 -55z m276
-339 c102 -125 186 -231 186 -236 0 -4 -87 -17 -192 -29 -106 -12 -247 -29
-313 -37 -184 -22 -171 -23 -167 5 6 42 62 192 99 266 64 127 178 285 193 268
5 -4 92 -111 194 -237z m1534 -276 c92 -11 187 -23 212 -26 25 -2 61 -7 80 -9
19 -3 55 -7 80 -10 62 -7 297 -34 340 -40 19 -2 62 -7 95 -11 33 -3 67 -8 75
-9 8 -2 44 -6 80 -10 57 -6 498 -57 605 -70 22 -3 175 -21 340 -40 165 -19
316 -37 335 -40 78 -10 392 -45 410 -45 11 0 20 -4 20 -10 0 -6 -623 -9 -1705
-10 -938 0 -1705 3 -1704 7 1 16 523 343 546 343 14 0 100 -9 191 -20z m-808
-344 c-37 -35 -515 -336 -534 -336 -17 0 -965 110 -1076 125 -19 2 -327 38
-685 80 -357 42 -661 78 -675 80 -14 2 -115 14 -225 26 -110 12 -204 25 -209
30 -5 4 762 8 1705 9 1475 0 1712 -2 1699 -14z m40 -1721 c-1 -1095 -4 -1705
-10 -1705 -6 0 -10 10 -10 23 0 12 -9 96 -20 187 -59 504 -80 690 -85 730 -6
47 -14 113 -20 165 -2 17 -18 149 -35 295 -17 146 -37 321 -45 390 -9 69 -17
143 -20 165 -2 22 -11 99 -20 170 -8 72 -17 150 -20 175 -5 42 -11 89 -20 165
-34 280 -46 392 -42 411 4 24 328 533 339 533 5 1 8 -766 8 -1704z m-600 1155
c-289 -286 -543 -535 -565 -552 l-40 -33 46 55 c25 30 172 211 327 401 l282
346 232 151 c128 83 235 151 238 151 3 0 -231 -234 -520 -519z m1214 -55 c301
-305 545 -559 541 -564 -6 -10 132 -127 140 -119 3 2 -43 66 -101 141 l-105
137 69 82 c153 183 255 381 316 618 l21 84 185 23 c249 30 240 30 241 -9 l2
-33 6 35 c6 33 9 35 56 42 27 4 51 5 53 3 8 -8 -19 -172 -49 -292 -67 -275
-187 -526 -360 -755 -80 -107 -280 -307 -387 -387 -291 -219 -630 -357 -1006
-406 -47 -6 -49 -6 -43 17 4 13 7 33 7 45 0 18 8 22 53 28 87 11 270 54 358
84 262 89 517 244 721 440 215 206 362 423 474 700 36 89 94 282 93 310 0 9
-15 -38 -34 -104 -71 -251 -170 -452 -327 -657 -281 -371 -696 -631 -1154
-723 -152 -31 -174 -32 -174 -5 0 26 58 526 65 560 5 22 17 29 98 54 158 47
320 132 439 229 29 24 59 46 66 51 14 8 137 -84 125 -94 -202 -168 -335 -245
-546 -315 -120 -40 -116 -47 5 -9 160 50 351 153 487 262 35 29 68 52 72 52 4
0 33 -21 64 -46 31 -25 58 -44 61 -41 3 2 -172 149 -389 325 l-393 321 -144
223 c-79 123 -148 229 -153 236 -36 47 63 -52 547 -543z m-2950 480 c121 -14
231 -28 242 -30 19 -4 23 -14 29 -72 55 -539 363 -1084 796 -1412 292 -221
608 -354 963 -407 102 -16 117 -20 121 -38 3 -12 14 -100 25 -196 11 -96 23
-192 26 -213 l6 -37 -49 4 c-26 3 -77 8 -113 11 -170 16 -435 77 -606 140
-234 86 -520 247 -719 405 -520 414 -878 1062 -945 1710 -6 58 -12 117 -14
133 -1 15 2 27 7 27 5 0 109 -11 231 -25z m345 -45 c15 0 19 -12 25 -62 9 -93
40 -230 76 -343 183 -571 631 -1036 1196 -1241 122 -44 317 -91 413 -100 39
-4 73 -10 75 -13 2 -3 6 -23 10 -44 l7 -38 -48 6 c-312 41 -633 157 -878 316
-483 314 -825 842 -910 1405 -19 124 -19 128 1 120 9 -3 24 -6 33 -6z m241
-25 c69 -8 154 -19 190 -23 l64 -7 26 -101 c56 -216 152 -404 299 -586 40 -50
60 -82 55 -90 -5 -7 -53 -68 -108 -136 -54 -67 -97 -124 -94 -127 2 -3 66 43
141 101 l137 105 78 -62 c152 -123 327 -219 500 -273 120 -38 125 -31 7 8
-136 46 -239 95 -342 162 -90 58 -223 163 -223 175 0 4 24 25 53 46 l53 40 39
-34 c58 -50 189 -135 273 -177 80 -40 267 -106 301 -106 24 0 26 -7 41 -145
17 -151 19 -171 35 -298 23 -181 26 -171 -42 -162 -344 41 -729 218 -1010 464
-344 301 -581 743 -639 1189 -8 62 -19 59 166 37z m426 -59 c6 -6 21 -48 33
-93 39 -148 114 -299 217 -436 l66 -88 -43 -55 -42 -55 -31 37 c-153 183 -254
374 -311 585 -36 135 -37 131 38 123 34 -3 67 -11 73 -18z m2784 7 c0 -66 -91
-323 -153 -433 -62 -111 -209 -310 -228 -310 -9 0 -89 107 -89 120 0 5 22 37
48 69 98 123 217 359 236 471 3 19 -5 4 -18 -35 -54 -164 -146 -333 -239 -442
l-45 -52 -196 255 c-108 140 -196 259 -196 263 0 5 30 12 68 16 37 3 78 8 92
10 14 2 88 11 165 20 77 9 223 27 325 39 237 30 230 30 230 9z m-2405 -44
c143 -17 284 -33 313 -36 28 -3 52 -9 52 -13 0 -7 -352 -445 -385 -479 -11
-11 -22 -1 -71 65 -77 104 -145 236 -188 365 -44 131 -45 140 -8 134 15 -3
144 -19 287 -36z m585 -276 c0 -10 18 -166 40 -348 21 -181 38 -331 36 -333
-9 -8 -213 66 -297 109 -95 49 -236 146 -273 188 -19 21 -19 22 0 35 10 8 120
93 244 189 124 97 231 176 238 176 6 1 12 -7 12 -16z m991 -189 l240 -196 -22
-24 c-87 -93 -382 -242 -533 -270 l-38 -7 6 39 c5 36 19 150 47 389 6 50 12
101 14 115 2 14 7 56 11 93 5 52 10 67 20 63 8 -3 123 -94 255 -202z m-634
-2686 c-3 -8 -6 -5 -6 6 -1 11 2 17 5 13 3 -3 4 -12 1 -19z"/>
<path d="M6903 8827 c-33 -118 -42 -200 -23 -212 27 -17 66 180 58 289 -3 36
-7 27 -35 -77z"/>
<path d="M7301 8723 c-36 -74 -55 -125 -59 -162 -6 -63 5 -63 42 2 22 40 82
254 73 263 -2 2 -27 -44 -56 -103z"/>
<path d="M7680 8558 c-81 -114 -87 -124 -95 -173 l-6 -40 43 47 c28 30 58 81
87 147 24 56 42 103 40 105 -2 3 -33 -36 -69 -86z"/>
<path d="M6773 8533 c9 -2 23 -2 30 0 6 3 -1 5 -18 5 -16 0 -22 -2 -12 -5z"/>
<path d="M6838 8523 c6 -2 18 -2 25 0 6 3 1 5 -13 5 -14 0 -19 -2 -12 -5z"/>
<path d="M6930 8505 c72 -18 100 -17 35 1 -27 7 -59 13 -70 13 -11 0 5 -7 35
-14z"/>
<path d="M8016 8320 c-79 -76 -139 -161 -123 -176 14 -14 77 49 139 138 103
149 102 151 -16 38z"/>
<path d="M8310 8029 c-114 -80 -173 -139 -157 -155 8 -8 59 16 97 46 44 34
166 170 154 170 -5 -1 -47 -28 -94 -61z"/>
<path d="M8546 7689 c-119 -54 -161 -80 -177 -111 -10 -19 -9 -20 23 -13 18 4
46 14 61 22 54 27 227 156 205 153 -2 -1 -52 -23 -112 -51z"/>
<path d="M8795 7335 c-5 -2 -56 -15 -112 -30 -74 -20 -110 -35 -135 -57 l-33
-29 50 5 c51 5 300 114 260 114 -11 0 -24 -1 -30 -3z"/>
<path d="M8951 7185 c0 -5 8 -41 19 -80 11 -38 18 -54 15 -34 -6 39 -33 130
-34 114z"/>
<path d="M8992 7010 c0 -14 2 -19 5 -12 2 6 2 18 0 25 -3 6 -5 1 -5 -13z"/>
<path d="M9002 6960 c0 -14 2 -19 5 -12 2 6 2 18 0 25 -3 6 -5 1 -5 -13z"/>
<path d="M8735 6909 c-64 -8 -124 -37 -104 -50 8 -5 28 -9 44 -9 29 0 255 57
265 66 6 7 -143 2 -205 -7z"/>
<path d="M9012 6895 c0 -16 2 -22 5 -12 2 9 2 23 0 30 -3 6 -5 -1 -5 -18z"/>
<path d="M8402 6870 c0 -14 2 -19 5 -12 2 6 2 18 0 25 -3 6 -5 1 -5 -13z"/>
<path d="M9022 6825 c0 -16 2 -22 5 -12 2 9 2 23 0 30 -3 6 -5 -1 -5 -18z"/>
<path d="M8412 6815 c0 -16 2 -22 5 -12 2 9 2 23 0 30 -3 6 -5 -1 -5 -18z"/>
<path d="M9033 6730 c0 -25 2 -35 4 -22 2 12 2 32 0 45 -2 12 -4 2 -4 -23z"/>
<path d="M6084 8825 c5 -86 13 -132 27 -165 16 -35 22 -41 29 -30 17 26 11 81
-21 195 -17 60 -34 112 -36 115 -3 3 -3 -49 1 -115z"/>
<path d="M5661 8830 c-2 -39 61 -246 85 -277 14 -18 28 -33 31 -33 3 0 3 21 0
48 -5 46 -115 293 -116 262z"/>
<path d="M5279 8618 c80 -184 107 -230 143 -249 19 -10 20 -9 13 23 -10 46
-27 76 -96 173 -71 99 -86 112 -60 53z"/>
<path d="M6203 8533 c9 -2 23 -2 30 0 6 3 -1 5 -18 5 -16 0 -22 -2 -12 -5z"/>
<path d="M6138 8523 c6 -2 18 -2 25 0 6 3 1 5 -13 5 -14 0 -19 -2 -12 -5z"/>
<path d="M6050 8510 c-20 -6 -21 -8 -5 -8 11 0 31 4 45 8 20 6 21 8 5 8 -11 0
-31 -4 -45 -8z"/>
<path d="M4910 8406 c0 -4 29 -49 65 -101 63 -89 124 -155 146 -155 29 0 -34
102 -103 165 -86 80 -108 99 -108 91z"/>
<path d="M4617 8084 c35 -50 166 -169 201 -183 86 -36 24 45 -100 131 -123 86
-126 87 -101 52z"/>
<path d="M4405 7707 c125 -91 165 -115 200 -121 21 -4 39 -5 42 -3 2 3 -15 21
-39 42 -39 33 -223 125 -251 125 -6 0 16 -19 48 -43z"/>
<path d="M4274 7304 c77 -39 125 -57 163 -61 29 -3 53 -3 53 0 0 18 -87 60
-166 81 -160 43 -167 41 -50 -20z"/>
<path d="M4060 6937 c10 -11 236 -67 270 -67 39 0 68 14 52 24 -36 22 -107 36
-210 42 -64 4 -115 4 -112 1z"/>
<path d="M8412 6190 c0 -19 2 -27 5 -17 2 9 2 25 0 35 -3 9 -5 1 -5 -18z"/>
<path d="M8402 6130 c0 -14 2 -19 5 -12 2 6 2 18 0 25 -3 6 -5 1 -5 -13z"/>
<path d="M6828 5043 c7 -3 16 -2 19 1 4 3 -2 6 -13 5 -11 0 -14 -3 -6 -6z"/>
<path d="M6778 5033 c6 -2 18 -2 25 0 6 3 1 5 -13 5 -14 0 -19 -2 -12 -5z"/>
<path d="M4168 6117 c-60 -16 -108 -33 -108 -36 0 -4 53 -2 118 2 125 9 222
38 192 57 -26 16 -91 9 -202 -23z"/>
<path d="M4400 5774 c-47 -16 -241 -109 -232 -112 15 -5 208 45 248 64 18 8
40 24 50 35 17 18 16 19 -17 18 -19 0 -41 -3 -49 -5z"/>
<path d="M4576 5425 c-37 -13 -66 -32 -183 -117 -83 -60 -75 -59 100 21 80 36
123 65 137 92 13 23 2 24 -54 4z"/>
<path d="M4804 5116 c-39 -17 -98 -70 -166 -149 -60 -69 -48 -65 74 20 74 52
138 114 138 133 0 13 -8 12 -46 -4z"/>
<path d="M5063 4835 c-18 -14 -61 -67 -96 -118 -84 -121 -84 -121 -61 -109 31
16 170 164 188 199 29 58 19 67 -31 28z"/>
<path d="M5377 4610 c-36 -42 -131 -233 -125 -251 5 -14 141 183 155 225 23
66 12 75 -30 26z"/>
<path d="M5725 4452 c-14 -21 -36 -79 -49 -128 -43 -160 -41 -167 20 -50 39
77 57 125 61 163 3 29 3 53 0 53 -4 0 -18 -17 -32 -38z"/>
<path d="M6094 4355 c-18 -43 -37 -194 -32 -259 3 -36 7 -26 36 80 33 123 39
178 22 204 -7 11 -13 6 -26 -25z"/>
<path d="M6158 5043 c7 -3 16 -2 19 1 4 3 -2 6 -13 5 -11 0 -14 -3 -6 -6z"/>
<path d="M6198 5033 c6 -2 18 -2 25 0 6 3 1 5 -13 5 -14 0 -19 -2 -12 -5z"/>
<path d="M7781 6194 c0 -11 3 -14 6 -6 3 7 2 16 -1 19 -3 4 -6 -2 -5 -13z"/>
<path d="M6086 9534 c-19 -18 -21 -75 -4 -92 17 -17 74 -15 92 4 22 21 20 67
-2 87 -23 21 -66 22 -86 1z"/>
<path d="M6841 9523 c-24 -30 -20 -58 11 -85 27 -23 53 -23 78 2 27 27 26 75
-2 94 -33 23 -64 19 -87 -11z"/>
<path d="M5694 9480 c-56 -23 -71 -99 -29 -144 53 -58 155 -20 155 58 0 64
-69 111 -126 86z"/>
<path d="M7222 9460 c-46 -43 -41 -109 11 -141 89 -55 186 63 112 136 -31 32
-91 34 -123 5z"/>
<path d="M5297 9322 c-38 -42 -8 -102 51 -102 39 0 66 35 56 74 -11 46 -76 63
-107 28z"/>
<path d="M7630 9320 c-39 -39 -11 -110 43 -110 54 0 79 84 35 114 -30 21 -54
20 -78 -4z"/>
<path d="M4919 9171 c-20 -20 -29 -39 -29 -61 0 -40 47 -90 85 -90 56 0 94 36
94 90 0 83 -91 120 -150 61z"/>
<path d="M7963 9176 c-61 -53 -21 -156 61 -156 50 0 86 38 86 90 0 80 -86 118
-147 66z"/>
<path d="M4339 9074 c-19 -23 1 -49 37 -49 26 0 31 -6 51 -55 12 -30 25 -72
28 -93 l8 -39 -102 68 c-60 40 -105 64 -110 58 -5 -5 9 -59 34 -126 23 -65 41
-118 39 -118 -2 0 -25 15 -51 34 -27 18 -67 43 -90 55 l-43 21 -26 -51 c-17
-34 -22 -55 -16 -61 7 -7 14 -3 21 11 7 12 19 21 28 21 20 0 100 -49 176 -108
35 -26 62 -41 68 -35 5 5 -9 57 -36 128 -24 65 -43 120 -42 122 2 1 43 -24 92
-57 54 -36 93 -56 99 -50 12 12 -29 190 -62 263 -32 74 -72 98 -103 61z"/>
<path d="M4675 8962 c-31 -6 -55 -32 -55 -59 0 -30 34 -63 65 -63 28 0 65 32
65 56 0 40 -38 74 -75 66z"/>
<path d="M8600 8947 c0 -7 5 -18 11 -24 6 -6 8 -16 5 -21 -3 -6 -57 -38 -119
-73 -61 -34 -114 -64 -116 -66 -3 -2 5 -13 17 -25 l21 -21 68 31 c109 50 248
69 248 34 0 -7 -45 -39 -99 -70 -115 -66 -129 -81 -101 -112 16 -17 28 -20 74
-18 33 2 54 7 51 13 -3 6 -15 10 -27 10 -12 1 -25 3 -28 7 -3 3 42 33 100 67
96 56 105 64 105 91 0 47 -35 64 -120 58 -39 -3 -70 -4 -70 -2 0 2 23 15 50
29 28 14 50 27 50 29 0 4 -108 76 -115 76 -3 0 -5 -6 -5 -13z"/>
<path d="M8282 8938 c-17 -17 -15 -74 4 -92 21 -22 67 -20 87 2 21 23 22 66 1
86 -18 19 -75 21 -92 4z"/>
<path d="M4010 8671 c-12 -24 -13 -92 -1 -143 5 -21 8 -38 6 -38 -2 0 -18 23
-35 51 -36 55 -34 56 -75 -23 -24 -45 -20 -74 5 -43 7 8 16 15 20 15 4 0 42
-49 85 -110 42 -60 80 -110 84 -110 5 0 16 9 25 19 17 19 17 21 -12 63 -59 86
-102 254 -67 265 6 1 37 -36 70 -83 33 -47 71 -95 84 -105 23 -18 25 -18 43
-3 27 25 22 134 -6 134 -8 0 -11 -13 -8 -37 5 -45 2 -43 -63 52 -26 39 -57 80
-68 93 -26 28 -72 29 -87 3z"/>
<path d="M8791 8627 c-19 -6 -51 -27 -73 -47 -32 -32 -38 -43 -38 -79 0 -60
44 -104 123 -121 40 -9 54 -17 47 -24 -17 -17 -11 -65 10 -86 24 -24 48 -25
78 -4 42 29 19 114 -31 114 -9 0 -18 4 -21 9 -3 4 -23 11 -44 15 -77 12 -115
71 -78 122 14 19 15 19 53 -4 65 -39 102 -53 149 -54 113 -2 112 110 -1 158
-40 16 -124 17 -174 1z m194 -47 c44 -36 -15 -79 -84 -60 -20 5 -49 18 -64 29
l-28 18 38 17 c42 18 114 16 138 -4z"/>
<path d="M3814 8067 c-21 -19 -27 -32 -26 -61 2 -48 15 -71 51 -86 63 -26 125
21 123 92 -2 70 -92 103 -148 55z"/>
<path d="M9082 8083 c-23 -9 -44 -64 -38 -98 9 -45 39 -70 88 -70 78 0 118 96
63 150 -23 24 -77 33 -113 18z"/>
<path d="M3684 7715 c-13 -13 -24 -33 -24 -45 0 -28 35 -60 65 -60 53 0 85 69
48 102 -33 28 -63 29 -89 3z"/>
<path d="M9235 7700 c-39 -43 -12 -103 46 -103 37 0 59 24 59 63 0 54 -69 80
-105 40z"/>
<path d="M3545 7345 c-48 -47 -25 -135 40 -151 62 -15 121 39 110 101 -12 70
-101 99 -150 50z"/>
<path d="M9335 7335 c-56 -55 -18 -155 59 -155 53 0 91 37 91 90 0 34 -6 47
-28 66 -38 32 -90 32 -122 -1z"/>
<path d="M2000 6925 c0 -96 3 -115 15 -115 8 0 15 6 15 13 0 8 8 21 18 30 16
14 20 14 54 -1 42 -19 377 -234 377 -242 1 -3 -92 4 -206 17 -186 20 -210 24
-225 44 -10 11 -18 34 -18 50 0 19 -5 29 -15 29 -13 0 -15 -21 -13 -147 2 -97
7 -148 14 -150 6 -2 14 11 18 28 8 42 23 59 51 59 13 0 110 -56 215 -125 106
-69 184 -125 174 -125 -11 0 -48 4 -84 9 -36 5 -96 12 -135 16 -198 18 -213
22 -221 76 -4 23 -12 39 -20 39 -11 0 -14 -28 -14 -140 0 -118 2 -140 15 -140
8 0 15 9 15 20 0 11 9 29 21 41 17 17 29 20 72 15 29 -3 165 -17 302 -31 138
-14 263 -27 278 -29 65 -10 11 35 -225 189 -136 89 -251 165 -255 169 -5 4 15
5 42 2 76 -8 322 -34 398 -42 56 -5 67 -4 67 9 0 8 -124 95 -297 207 -341 221
-377 248 -394 295 -7 19 -19 37 -26 39 -10 4 -13 -19 -13 -109z"/>
<path d="M3470 6930 c-11 -11 -20 -31 -20 -44 0 -32 45 -69 74 -60 27 8 56 41
56 65 0 27 -35 59 -65 59 -14 0 -34 -9 -45 -20z"/>
<path d="M10288 6930 c-1 -5 -1 -130 2 -277 l5 -266 98 -33 c90 -30 97 -31 97
-14 0 10 -8 21 -18 24 -30 10 -101 84 -118 124 -18 41 -30 176 -20 216 8 34
22 33 155 -4 164 -47 154 -40 147 -113 -7 -74 -23 -91 -79 -84 -31 4 -38 2
-35 -11 2 -11 41 -27 131 -53 120 -35 158 -37 121 -7 -69 55 -82 74 -89 132
-4 32 -3 62 2 67 5 5 60 -6 137 -28 l128 -36 -4 -98 c-4 -121 -21 -152 -86
-157 -29 -2 -42 -8 -42 -18 0 -8 2 -14 4 -14 2 0 39 -9 82 -20 44 -11 82 -20
87 -20 4 0 7 117 7 260 0 224 -2 260 -15 260 -9 0 -15 -9 -15 -24 0 -24 -23
-56 -41 -56 -15 0 -529 150 -565 165 -23 9 -35 22 -39 42 -10 45 -14 53 -24
53 -5 0 -11 -4 -13 -10z"/>
<path d="M9442 6918 c-17 -17 -15 -74 4 -92 21 -22 67 -20 87 2 21 23 22 66 1
86 -18 19 -75 21 -92 4z"/>
<path d="M9033 6270 c0 -25 2 -35 4 -22 2 12 2 32 0 45 -2 12 -4 2 -4 -23z"/>
<path d="M9022 6175 c0 -16 2 -22 5 -12 2 9 2 23 0 30 -3 6 -5 -1 -5 -18z"/>
<path d="M3467 6172 c-21 -23 -22 -66 -1 -86 18 -19 75 -21 92 -4 17 17 15 74
-4 92 -21 22 -67 20 -87 -2z"/>
<path d="M9463 6170 c-23 -10 -43 -39 -43 -64 0 -26 38 -56 69 -56 58 0 81 73
35 109 -30 23 -30 23 -61 11z"/>
<path d="M8620 6120 c-28 -18 59 -43 193 -55 70 -6 127 -8 127 -5 0 11 -228
70 -268 70 -20 0 -44 -5 -52 -10z"/>
<path d="M9012 6100 c0 -19 2 -27 5 -17 2 9 2 25 0 35 -3 9 -5 1 -5 -18z"/>
<path d="M9002 6040 c0 -14 2 -19 5 -12 2 6 2 18 0 25 -3 6 -5 1 -5 -13z"/>
<path d="M8992 5990 c0 -14 2 -19 5 -12 2 6 2 18 0 25 -3 6 -5 1 -5 -13z"/>
<path d="M8967 5888 c-10 -39 -16 -73 -13 -75 2 -2 11 28 21 67 10 39 15 73
13 75 -2 3 -12 -27 -21 -67z"/>
<path d="M3543 5796 c-22 -19 -28 -32 -28 -66 0 -34 6 -47 28 -66 62 -53 147
-15 147 66 0 81 -85 119 -147 66z"/>
<path d="M9347 5799 c-28 -16 -49 -67 -42 -100 15 -65 103 -92 150 -44 25 24
33 73 19 110 -14 35 -89 56 -127 34z"/>
<path d="M8514 5752 c16 -26 97 -61 199 -86 60 -15 111 -25 113 -23 3 3 -44
28 -103 57 -72 34 -126 54 -162 57 -39 5 -52 3 -47 -5z"/>
<path d="M8385 5382 c27 -26 75 -55 144 -86 57 -26 108 -45 112 -44 8 3 -151
120 -195 145 -12 6 -39 14 -61 18 l-40 7 40 -40z"/>
<path d="M3690 5397 c-32 -16 -40 -70 -14 -98 38 -42 104 -12 104 48 0 47 -45
72 -90 50z"/>
<path d="M9230 5370 c-41 -41 -13 -100 48 -100 33 0 62 29 62 62 0 26 -36 58
-65 58 -14 0 -34 -9 -45 -20z"/>
<path d="M8140 5103 c0 -21 63 -81 143 -136 122 -84 125 -86 100 -51 -66 92
-243 229 -243 187z"/>
<path d="M3815 5015 c-56 -55 -18 -155 60 -155 38 0 84 34 86 65 1 8 2 21 3
28 3 20 -23 66 -43 77 -34 18 -80 12 -106 -15z"/>
<path d="M9069 5011 c-20 -20 -29 -39 -29 -61 0 -40 47 -90 85 -90 56 0 94 36
94 90 0 83 -91 120 -150 61z"/>
<path d="M7876 4828 c16 -52 66 -110 183 -213 32 -29 33 -29 21 -5 -64 124
-230 301 -204 218z"/>
<path d="M4062 4733 c-11 -10 -23 -27 -26 -39 -9 -29 28 -74 60 -74 31 0 64
33 64 65 0 30 -32 65 -59 65 -10 0 -28 -8 -39 -17z"/>
<path d="M8864 4727 c-26 -14 -34 -27 -34 -58 0 -50 69 -79 104 -43 19 18 21
78 4 91 -21 17 -54 21 -74 10z"/>
<path d="M7565 4608 c10 -46 27 -76 96 -173 93 -129 93 -125 10 58 -37 81 -65
123 -93 138 -19 10 -20 9 -13 -23z"/>
<path d="M8739 4605 c-1 -3 -3 -9 -4 -15 -1 -5 -3 -13 -4 -18 0 -4 -16 -15
-34 -25 -64 -35 -86 -110 -47 -160 23 -29 74 -47 136 -47 27 0 47 -6 57 -18
21 -23 21 -27 1 -46 -20 -21 -63 -20 -86 1 -35 31 -39 0 -6 -50 31 -47 48 -59
48 -33 0 8 19 27 43 43 53 36 70 87 43 128 -21 31 -43 40 -121 50 -95 11 -122
54 -62 99 l28 21 39 -23 c21 -12 41 -18 44 -14 3 5 -11 32 -30 60 -32 49 -42
59 -45 47z"/>
<path d="M4105 4556 c-122 -19 -179 -60 -144 -102 20 -25 53 -13 59 21 6 35
39 49 141 61 l64 7 -75 -82 c-89 -97 -96 -108 -87 -117 3 -4 63 4 131 18 l125
25 -52 -58 c-29 -31 -60 -70 -69 -87 l-17 -29 45 -33 c29 -21 49 -29 55 -23 6
6 4 14 -6 23 -29 24 -15 51 77 146 62 64 88 98 81 105 -6 6 -48 1 -128 -16
-65 -14 -120 -24 -122 -22 -2 2 28 39 66 82 39 43 68 82 65 87 -7 11 -114 8
-209 -6z"/>
<path d="M7223 4434 c5 -46 108 -285 115 -266 8 24 -59 246 -84 279 -14 18
-28 33 -31 33 -3 0 -3 -21 0 -46z"/>
<path d="M6856 4373 c-14 -14 -4 -89 25 -196 17 -61 34 -115 38 -119 3 -4 3
45 -2 110 -9 136 -36 229 -61 205z"/>
<path d="M8478 4333 c-36 -23 -65 -78 -74 -141 -6 -44 -4 -52 10 -52 11 0 16
9 16 28 0 40 33 96 63 106 34 12 77 -6 77 -33 0 -11 -5 -23 -10 -26 -22 -14
-61 -107 -62 -149 -2 -118 92 -128 150 -15 19 36 23 56 20 109 -7 139 -103
227 -190 173z m143 -184 c24 -88 -34 -169 -69 -97 -14 31 -3 92 25 135 19 29
28 22 44 -38z"/>
<path d="M4489 4255 c-33 -18 -39 -32 -53 -119 -12 -75 -32 -100 -63 -80 -24
15 -29 67 -9 84 16 12 22 40 10 40 -13 0 -104 -55 -104 -63 0 -5 9 -11 20 -14
11 -3 27 -20 36 -38 26 -55 89 -74 138 -42 18 12 27 32 36 74 25 130 49 157
96 112 30 -28 31 -58 3 -93 -12 -15 -19 -30 -15 -33 8 -8 57 14 91 42 30 24
30 25 7 31 -12 4 -30 22 -39 41 -28 60 -102 88 -154 58z"/>
<path d="M8270 4140 c-24 -24 -25 -48 -4 -78 31 -45 114 -19 114 36 0 29 -34
62 -65 62 -14 0 -34 -9 -45 -20z"/>
<path d="M4929 3937 c-67 -51 -41 -150 43 -164 32 -5 41 -1 68 25 60 61 26
152 -57 152 -21 0 -45 -6 -54 -13z"/>
<path d="M7955 3925 c-36 -36 -34 -88 5 -127 27 -26 36 -30 68 -25 84 14 110
113 43 164 -28 22 -89 16 -116 -12z"/>
<path d="M7265 3790 c-13 -5 -14 -9 -5 -9 8 0 24 4 35 9 13 5 14 9 5 9 -8 0
-24 -4 -35 -9z"/>
<path d="M5287 3772 c-55 -60 26 -149 83 -92 11 11 20 31 20 45 0 54 -69 85
-103 47z"/>
<path d="M5795 3765 c22 -8 49 -13 60 -13 11 0 -2 6 -30 14 -63 17 -84 16 -30
-1z"/>
<path d="M7125 3755 c-49 -13 -84 -23 -76 -24 18 -1 191 39 191 45 0 7 -20 3
-115 -21z"/>
<path d="M7610 3764 c-20 -23 -16 -75 5 -90 26 -20 69 -17 88 4 22 24 21 65
-1 85 -23 21 -75 22 -92 1z"/>
<path d="M5925 3735 c28 -7 61 -13 75 -13 14 0 -2 6 -35 14 -76 17 -107 16
-40 -1z"/>
<path d="M6993 3723 c9 -2 23 -2 30 0 6 3 -1 5 -18 5 -16 0 -22 -2 -12 -5z"/>
<path d="M6043 3713 c9 -2 23 -2 30 0 6 3 -1 5 -18 5 -16 0 -22 -2 -12 -5z"/>
<path d="M6933 3713 c9 -2 23 -2 30 0 6 3 -1 5 -18 5 -16 0 -22 -2 -12 -5z"/>
<path d="M6113 3703 c9 -2 23 -2 30 0 6 3 -1 5 -18 5 -16 0 -22 -2 -12 -5z"/>
<path d="M6863 3703 c9 -2 23 -2 30 0 6 3 -1 5 -18 5 -16 0 -22 -2 -12 -5z"/>
<path d="M5684 3690 c-89 -36 -62 -170 34 -170 91 0 126 113 49 160 -35 22
-50 23 -83 10z"/>
<path d="M6198 3693 c12 -2 30 -2 40 0 9 3 -1 5 -23 4 -22 0 -30 -2 -17 -4z"/>
<path d="M6768 3693 c12 -2 30 -2 40 0 9 3 -1 5 -23 4 -22 0 -30 -2 -17 -4z"/>
<path d="M7205 3665 c-33 -32 -33 -84 -1 -122 53 -61 156 -21 156 61 0 77
-100 117 -155 61z"/>
<path d="M6070 3560 c-39 -39 -11 -110 44 -110 32 0 69 45 60 74 -8 27 -41 56
-65 56 -10 0 -28 -9 -39 -20z"/>
<path d="M6826 3554 c-22 -21 -20 -67 2 -87 23 -21 66 -22 86 -1 19 18 21 75
4 92 -17 17 -74 15 -92 -4z"/>
<path d="M6565 2758 c-53 -11 -103 -52 -126 -102 -37 -82 -19 -149 65 -236
139 -146 168 -198 146 -265 -6 -19 -25 -46 -43 -61 -28 -23 -37 -26 -94 -22
-58 4 -67 8 -100 41 -35 34 -38 42 -41 107 -3 51 -8 70 -18 70 -8 0 -14 -2
-14 -4 0 -6 -51 -230 -56 -248 -8 -26 24 -23 45 3 l18 22 63 -22 c192 -64 354
24 351 191 -1 73 -21 107 -125 215 -128 134 -141 170 -82 229 29 29 41 34 80
34 91 0 146 -54 146 -142 0 -35 4 -48 14 -48 10 0 22 34 40 110 14 61 26 115
26 120 0 17 -26 11 -44 -9 -19 -21 -32 -21 -81 0 -44 18 -125 26 -170 17z"/>
</g>
</svg>
