<?xml version="1.0" standalone="no"?><!DOCTYPE svg PUBLIC "-//W3C//DTD SVG 1.1//EN" "http://www.w3.org/Graphics/SVG/1.1/DTD/svg11.dtd"><svg t="1613755944969" class="icon" viewBox="0 0 1024 1024" version="1.1" xmlns="http://www.w3.org/2000/svg" p-id="5967" xmlns:xlink="http://www.w3.org/1999/xlink" width="200" height="200"><defs><style type="text/css"></style></defs><path d="M194.187431 235.50871m-69.997795 0a69.997795 69.997795 0 1 0 139.99559 0 69.997795 69.997795 0 1 0-139.99559 0Z" p-id="5968"></path><path d="M347.505182 165.510915h552.305182v139.99559H347.505182z" p-id="5969"></path><path d="M194.187431 512.1129m-69.997795 0a69.997795 69.997795 0 1 0 139.99559 0 69.997795 69.997795 0 1 0-139.99559 0Z" p-id="5970"></path><path d="M347.505182 442.115105h552.305182v139.99559H347.505182z" p-id="5971"></path><path d="M194.187431 788.49129m-69.997795 0a69.997795 69.997795 0 1 0 139.99559 0 69.997795 69.997795 0 1 0-139.99559 0Z" p-id="5972"></path><path d="M347.505182 718.719294h552.305182v139.99559H347.505182z" p-id="5973"></path></svg>